<?xml version="1.0" standalone="no"?>
<!DOCTYPE svg PUBLIC "-//W3C//DTD SVG 20010904//EN"
 "http://www.w3.org/TR/2001/REC-SVG-20010904/DTD/svg10.dtd">
<svg version="1.0" xmlns="http://www.w3.org/2000/svg"
 width="276.000000pt" height="263.000000pt" viewBox="0 0 276.000000 263.000000"
 preserveAspectRatio="xMidYMid meet">

<g transform="translate(0.000000,263.000000) scale(0.100000,-0.100000)"
fill="#000000" stroke="none">
<path d="M685 2414 c-96 -21 -238 -91 -308 -154 -263 -236 -290 -667 -64
-1007 58 -87 169 -214 271 -311 l78 -74 22 43 c13 28 30 45 45 49 20 4 29 20
51 85 15 44 34 98 44 120 41 96 41 243 0 259 -19 7 -34 -1 -34 -18 0 -17 -58
-106 -69 -106 -5 0 -17 24 -25 53 -9 28 -36 83 -61 122 -64 98 -62 112 29 200
41 40 83 90 95 112 47 94 88 120 159 104 32 -7 49 -4 93 15 65 28 151 31 227
9 37 -11 65 -30 104 -69 44 -44 61 -54 97 -59 65 -8 75 -23 82 -125 5 -65 14
-106 38 -162 52 -126 47 -139 -87 -225 -35 -22 -59 -41 -53 -43 13 -4 157 94
176 120 19 28 19 65 1 100 -36 69 -56 142 -56 206 0 85 -22 126 -77 141 -21 6
-45 11 -54 11 -9 0 -40 24 -70 54 -43 43 -66 58 -113 71 -74 22 -163 16 -224
-15 -23 -11 -47 -18 -52 -15 -5 3 -31 6 -58 6 -64 2 -92 -17 -131 -91 -31 -58
-59 -91 -135 -159 -67 -60 -69 -101 -12 -182 52 -71 71 -119 71 -176 0 -34 4
-53 12 -53 16 0 74 75 96 125 18 39 19 39 33 20 12 -16 14 -36 9 -95 -4 -41
-13 -91 -20 -110 -7 -19 -27 -73 -43 -119 -22 -59 -37 -87 -53 -95 -13 -6 -34
-27 -46 -45 l-23 -34 -114 114 c-269 271 -365 479 -354 771 5 135 28 218 88
324 116 201 350 318 606 301 167 -11 299 -74 423 -201 l55 -55 60 57 c137 128
218 172 371 198 85 14 111 15 180 5 228 -35 400 -149 491 -326 60 -116 77
-188 78 -330 1 -145 -19 -244 -75 -363 -59 -129 -119 -211 -262 -358 -111
-115 -134 -134 -154 -129 -35 8 -77 -19 -103 -69 -18 -33 -32 -46 -54 -50 -40
-8 -49 9 -28 53 10 23 15 56 14 91 -1 30 -3 105 -5 165 -3 154 -10 160 -89 91
-48 -42 -53 -44 -126 -48 l-76 -5 -58 45 c-45 35 -61 43 -70 34 -7 -7 -8 -12
-4 -12 5 0 3 -6 -3 -14 -9 -11 -9 -25 -1 -56 6 -22 10 -92 8 -155 -2 -86 0
-117 11 -127 11 -11 12 -9 5 12 -9 27 -10 51 -4 145 2 33 0 88 -4 123 -8 57
-7 62 10 62 11 0 37 -16 59 -35 38 -34 43 -35 120 -35 l80 0 53 46 c29 26 56
43 60 39 4 -4 7 -48 8 -98 0 -51 4 -120 9 -155 6 -51 5 -70 -10 -102 -23 -51
-14 -95 18 -86 12 3 32 6 43 6 14 0 24 8 28 23 3 12 20 39 37 60 27 32 37 38
64 35 29 -3 42 6 105 66 298 287 412 506 413 787 0 289 -136 513 -378 625
-132 61 -277 79 -421 53 -72 -13 -209 -77 -253 -119 -18 -16 -36 -30 -40 -30
-4 0 -27 -20 -51 -45 -24 -25 -49 -45 -55 -45 -6 0 -29 18 -50 41 -164 169
-393 240 -620 193z"/>
<path d="M1280 1315 c-18 -22 -6 -96 28 -178 33 -76 46 -96 32 -46 -13 43 -13
44 4 30 11 -9 16 -5 25 20 6 18 11 33 11 35 0 1 -9 0 -19 -3 -16 -4 -21 2 -26
30 -4 19 -5 54 -3 78 3 38 0 44 -18 47 -11 2 -27 -4 -34 -13z m36 -57 c-1 -29
3 -66 7 -83 l7 -30 -15 27 c-17 31 -34 107 -27 126 2 6 9 12 16 12 8 0 12 -18
12 -52z"/>
<path d="M1357 998 c10 -41 31 -196 33 -250 0 -5 5 -8 11 -8 5 0 8 4 5 8 -3 5
-6 37 -7 73 -2 65 -32 206 -48 222 -5 5 -2 -16 6 -45z"/>
<path d="M1476 804 c8 -42 -11 -78 -38 -71 -16 5 -18 3 -9 -6 6 -6 11 -19 11
-29 0 -35 15 -17 38 44 20 56 21 64 7 77 -14 14 -15 13 -9 -15z"/>
<path d="M1969 718 c-11 -23 -27 -35 -55 -44 -35 -11 -36 -12 -11 -13 21 -1
27 -6 27 -23 0 -20 2 -19 20 10 19 31 22 32 87 33 38 1 82 5 98 9 17 5 -11 6
-64 3 l-94 -6 6 31 c8 40 5 40 -14 0z"/>
<path d="M471 664 c0 -11 3 -14 6 -6 3 7 2 16 -1 19 -3 4 -6 -2 -5 -13z"/>
<path d="M651 633 c-2 -31 -24 -40 -106 -44 l-70 -4 -6 30 c-5 23 -7 25 -8 8
0 -13 -11 -33 -23 -45 -14 -14 -18 -23 -10 -26 7 -2 12 -11 13 -20 1 -10 4 -6
8 8 6 23 13 26 89 34 45 5 85 6 89 3 3 -4 -2 -43 -11 -87 -10 -45 -16 -83 -14
-86 3 -2 14 37 24 88 17 82 22 93 44 99 15 4 18 7 8 8 -10 1 -18 12 -21 29 -3
21 -4 22 -6 5z"/>
<path d="M1921 603 c-1 -6 -4 -20 -7 -30 -5 -17 -5 -17 6 0 6 10 9 23 6 30 -3
9 -5 9 -5 0z"/>
<path d="M864 575 c-9 -14 -24 -25 -34 -25 -13 0 -16 -6 -12 -25 2 -14 8 -25
13 -25 5 0 9 -13 9 -29 0 -33 16 -49 33 -32 8 8 6 11 -6 11 -23 0 -22 36 3
100 22 55 20 64 -6 25z"/>
<path d="M1160 560 c-12 -8 -10 -10 8 -10 18 0 22 -6 22 -30 0 -28 -29 -70
-49 -70 -5 0 -11 -7 -14 -14 -4 -11 -1 -13 10 -9 13 5 15 2 10 -13 -5 -14 -2
-12 13 6 11 14 20 30 20 37 0 7 12 19 28 27 19 11 22 15 10 16 -12 0 -18 8
-18 24 0 30 -21 48 -40 36z"/>
<path d="M1470 560 c-12 -8 -10 -10 8 -10 15 0 22 -6 22 -20 0 -29 -21 -70
-36 -70 -7 0 -18 -10 -25 -21 -8 -15 -8 -19 0 -15 6 4 11 2 11 -3 0 -22 18
-10 30 19 7 17 25 37 39 45 19 10 21 14 9 15 -12 0 -18 8 -18 24 0 30 -21 48
-40 36z"/>
<path d="M1708 563 c6 -2 12 -11 12 -19 0 -9 5 -12 10 -9 19 12 10 35 -12 34
-13 0 -17 -3 -10 -6z"/>
<path d="M2110 548 c0 -7 5 -20 10 -28 8 -12 10 -9 10 13 0 15 -4 27 -10 27
-5 0 -10 -6 -10 -12z"/>
<path d="M1275 519 c-19 -9 -18 -9 3 -5 17 3 22 -1 22 -17 0 -18 2 -19 10 -7
23 35 7 49 -35 29z"/>
<path d="M1651 506 c-7 -8 -14 -30 -18 -48 -6 -38 15 -68 45 -68 12 0 9 4 -8
13 -40 20 -38 53 4 74 20 9 36 21 36 25 0 5 -9 4 -19 -2 -27 -14 -34 -13 -27
5 7 19 2 19 -13 1z"/>
<path d="M431 494 c0 -11 3 -14 6 -6 3 7 2 16 -1 19 -3 4 -6 -2 -5 -13z"/>
<path d="M2121 454 c-1 -33 -6 -56 -16 -64 -21 -17 -19 -26 5 -26 13 0 20 7
20 19 0 10 11 28 25 41 l25 23 -27 -5 c-20 -4 -25 -1 -21 9 3 8 2 23 -3 34 -5
14 -8 5 -8 -31z"/>
<path d="M726 464 c-8 -32 -1 -42 21 -28 24 15 29 36 7 27 -13 -5 -16 -3 -11
10 3 9 3 17 -2 17 -5 0 -12 -12 -15 -26z"/>
<path d="M1080 479 c0 -5 5 -7 10 -4 6 3 10 8 10 11 0 2 -4 4 -10 4 -5 0 -10
-5 -10 -11z"/>
<path d="M1770 460 c-19 -16 -30 -29 -25 -29 6 0 26 13 45 29 19 16 31 29 25
29 -5 0 -26 -13 -45 -29z"/>
<path d="M1881 474 c0 -11 3 -14 6 -6 3 7 2 16 -1 19 -3 4 -6 -2 -5 -13z"/>
<path d="M421 444 c0 -11 3 -14 6 -6 3 7 2 16 -1 19 -3 4 -6 -2 -5 -13z"/>
<path d="M1056 443 c-6 -14 -5 -15 5 -6 7 7 10 15 7 18 -3 3 -9 -2 -12 -12z"/>
<path d="M1285 440 c-3 -5 -1 -10 4 -10 6 0 11 5 11 10 0 6 -2 10 -4 10 -3 0
-8 -4 -11 -10z"/>
<path d="M1870 428 c0 -19 2 -20 10 -8 13 19 13 30 0 30 -5 0 -10 -10 -10 -22z"/>
<path d="M412 395 c0 -16 2 -22 5 -12 2 9 2 23 0 30 -3 6 -5 -1 -5 -18z"/>
<path d="M970 400 c-6 -11 -7 -20 -2 -20 6 0 12 9 15 20 3 11 3 20 1 20 -2 0
-8 -9 -14 -20z"/>
<path d="M1281 404 c0 -11 3 -14 6 -6 3 7 2 16 -1 19 -3 4 -6 -2 -5 -13z"/>
<path d="M1705 410 c-3 -6 1 -7 9 -4 18 7 21 14 7 14 -6 0 -13 -4 -16 -10z"/>
<path d="M1860 361 c0 -23 2 -41 4 -41 8 0 12 71 4 76 -4 3 -8 -13 -8 -35z"/>
<path d="M590 375 c0 -8 2 -15 4 -15 2 0 6 7 10 15 3 8 1 15 -4 15 -6 0 -10
-7 -10 -15z"/>
<path d="M1013 373 c-4 -10 -15 -29 -26 -43 l-20 -25 6 33 c4 17 3 32 -2 32
-8 0 -45 -209 -38 -216 2 -2 16 33 31 78 15 46 33 92 40 103 16 26 27 55 20
55 -2 0 -8 -8 -11 -17z"/>
<path d="M1076 374 c-3 -9 -4 -19 -2 -21 8 -8 46 8 46 18 0 6 -5 7 -11 3 -6
-3 -15 -1 -19 6 -5 8 -9 7 -14 -6z"/>
<path d="M1275 368 c-8 -26 -25 -115 -31 -163 -8 -64 6 -50 30 30 10 33 25 72
32 88 8 15 11 27 6 27 -5 0 -14 -10 -21 -22 -10 -21 -11 -19 -7 15 5 36 0 50
-9 25z"/>
<path d="M1385 371 c-3 -2 -5 -8 -5 -13 0 -13 26 -9 38 5 8 10 6 13 -9 13 -11
0 -22 -2 -24 -5z"/>
<path d="M402 325 c0 -16 2 -22 5 -12 2 9 2 23 0 30 -3 6 -5 -1 -5 -18z"/>
<path d="M581 335 c-1 -11 -4 -31 -6 -45 l-6 -25 11 25 c6 13 9 33 7 45 -4 19
-4 19 -6 0z"/>
<path d="M2064 335 c-4 -8 -3 -22 0 -31 5 -14 9 -14 23 -3 15 13 15 14 -1 17
-10 2 -15 10 -12 18 3 8 3 14 0 14 -2 0 -7 -7 -10 -15z"/>
</g>
</svg>
